# xmcd
#
# Track frame offsets:
#  182
#  11255
#  25557
#  49462
#  65265
#  79137
#  98877
#  115115
#  127750
#  146515
#  163425
#  181172
#
# Disc length: 2692 seconds
#
# Revision: 6
# Processed by: cddbd v1.5.1PL2 Copyright (c) Steve Scherf et al.
# Submitted via: Collectorz.com_Music_Collector 6.10
#
DISCID=930a820c
DTITLE=John Lee Hooker - That's My Story
DYEAR=1960
DGENRE=Blues
TTITLE0=I Need Some Money
TTITLE1=Come On And See About Me
TTITLE2=I'm Wanderin'
TTITLE3=Democrat Man
TTITLE4=I Want To Talk About You
TTITLE5=Gonna Use My Rod
TTITLE6=Wednesday Evenin' Blues
TTITLE7=No More Doggin'
TTITLE8=One Of These Days
TTITLE9=I Believe I'll Go Back Home
TTITLE10=You're Leavin' Me, Baby
TTITLE11=That's My Story
EXTD=
EXTT0=
EXTT1=
EXTT2=
EXTT3=
EXTT4=
EXTT5=
EXTT6=
EXTT7=
EXTT8=
EXTT9=
EXTT10=
EXTT11=
PLAYORDER=
